<svg width="190" height="166" viewBox="0 0 190 166" fill="none" xmlns="http://www.w3.org/2000/svg">
<rect width="189.592" height="165.5" fill="black"/>
<rect x="92.8527" y="115.55" width="4.20148" height="17.6064" fill="#C4C4C4"/>
<path fill-rule="evenodd" clip-rule="evenodd" d="M110.604 100.46V100.459L94.9534 114.33V128.415L97.0542 126.553V126.554L112.705 112.683V98.5979L110.604 100.46Z" fill="#C4C4C4"/>
<path fill-rule="evenodd" clip-rule="evenodd" d="M77.2022 98.5957V112.681L79.3029 114.543V114.544L94.9534 128.415V114.33L92.8527 112.468V112.467L77.2022 98.5957Z" fill="#C4C4C4"/>
<path fill-rule="evenodd" clip-rule="evenodd" d="M77.2022 80.9894V95.0745L92.8527 108.945V94.8604L77.2022 80.9894ZM97.0542 108.948V94.8627L112.705 80.9917V95.0768L97.0542 108.948Z" fill="#C4C4C4"/>
<path fill-rule="evenodd" clip-rule="evenodd" d="M77.2022 63.3829V77.468L92.8527 91.339V77.2539L77.2022 63.3829ZM97.0542 91.3413V77.2562L112.705 63.3852V77.4703L97.0542 91.3413Z" fill="#C4C4C4"/>
<path fill-rule="evenodd" clip-rule="evenodd" d="M77.2022 45.7766V59.8617L92.8527 73.7327V59.6476L77.2022 45.7766ZM97.0542 73.735V59.6499L112.705 45.7789V59.864L97.0542 73.735Z" fill="#C4C4C4"/>
<path fill-rule="evenodd" clip-rule="evenodd" d="M77.2022 28.1702V42.2553L92.8527 56.1263V42.0412L77.2022 28.1702ZM97.0542 56.1286V42.0435L112.705 28.1725V42.2576L97.0542 56.1286Z" fill="#C4C4C4"/>
</svg>
